<?xml version="1.0" standalone="no"?>
<!DOCTYPE svg PUBLIC "-//W3C//DTD SVG 20010904//EN"
 "http://www.w3.org/TR/2001/REC-SVG-20010904/DTD/svg10.dtd">
<svg version="1.0" xmlns="http://www.w3.org/2000/svg"
 width="1500.000000pt" height="1500.000000pt" viewBox="0 0 1500.000000 1500.000000"
 preserveAspectRatio="xMidYMid meet">
<metadata>
Created by potrace 1.10, written by Peter Selinger 2001-2011
</metadata>
<g transform="translate(0.000000,1500.000000) scale(0.100000,-0.100000)"
fill="#000000" stroke="none">
<path d="M5539 12293 c-16 -19 -16 -101 0 -131 6 -12 11 -73 11 -142 0 -79 4
-129 13 -143 9 -17 14 -187 19 -697 4 -371 10 -763 13 -871 6 -187 7 -197 28
-217 21 -20 25 -20 45 -6 21 15 22 20 22 222 -1 161 -4 213 -15 232 -12 21
-14 133 -15 696 0 573 -2 673 -15 690 -11 14 -15 50 -15 139 0 89 -4 125 -15
139 -8 11 -15 34 -15 51 0 50 -34 71 -61 38z"/>
<path d="M2935 12090 c-4 -6 -61 -10 -137 -10 -183 0 -189 -4 -241 -166 -15
-45 -27 -98 -27 -118 0 -21 -6 -47 -12 -59 -14 -25 -26 -130 -36 -330 l-7
-138 -43 -36 c-41 -34 -42 -36 -27 -59 21 -33 22 -216 0 -234 -13 -11 -15 -70
-15 -421 0 -397 1 -410 20 -429 16 -16 25 -18 40 -10 11 6 21 12 22 13 1 1 5
182 9 402 10 548 22 651 80 696 19 15 43 19 119 19 67 0 101 5 114 15 17 13
75 15 347 15 375 0 359 4 359 -83 0 -30 7 -60 15 -71 9 -12 15 -41 15 -71 0
-28 6 -57 13 -63 9 -10 13 -100 17 -354 5 -309 7 -342 22 -352 14 -8 22 -7 35
7 16 16 18 48 21 355 2 281 0 345 -13 384 -8 26 -15 62 -15 80 0 18 -7 51 -16
75 -9 23 -14 52 -10 65 6 27 64 56 116 60 27 2 36 8 38 24 2 11 -4 27 -13 34
-14 12 -91 16 -140 8 -16 -2 -21 4 -25 40 -4 26 -16 53 -33 70 -22 23 -27 37
-27 78 0 38 -8 65 -30 105 -16 30 -30 63 -30 75 0 11 -8 28 -18 37 -23 21 -75
133 -100 217 -15 52 -25 68 -49 80 -16 9 -40 26 -53 38 -22 20 -33 22 -151 22
-75 0 -130 -4 -134 -10z m246 -100 c19 -16 37 -30 42 -30 4 0 7 -10 7 -22 0
-13 7 -32 15 -42 8 -11 15 -28 15 -38 0 -23 65 -152 85 -168 8 -6 17 -25 20
-42 4 -17 18 -54 31 -82 14 -30 24 -70 24 -97 0 -36 5 -51 25 -69 17 -16 25
-33 23 -50 l-3 -25 -355 -5 c-253 -4 -363 -9 -383 -17 -33 -15 -135 -17 -157
-3 -12 7 -14 29 -12 106 2 54 7 106 13 115 5 10 9 42 9 72 0 30 7 71 15 90 8
20 15 50 15 67 0 34 27 129 41 144 5 6 9 21 9 35 0 13 7 33 17 43 14 16 33 18
147 18 99 1 136 4 150 15 14 10 45 15 97 15 70 0 79 -2 110 -30z"/>
<path d="M6792 12057 c-19 -9 -23 -17 -19 -41 5 -31 23 -87 38 -118 5 -10 9
-43 9 -74 0 -30 5 -64 11 -75 27 -52 40 -139 41 -271 0 -75 -3 -142 -7 -147
-4 -7 -60 -11 -148 -11 -113 0 -147 -3 -165 -16 -26 -18 -30 -65 -6 -85 14
-11 21 -10 46 4 42 24 207 24 246 0 38 -24 40 -29 34 -79 -3 -26 2 -63 12 -93
12 -38 16 -90 16 -219 0 -128 4 -178 15 -205 10 -25 15 -71 15 -145 0 -71 4
-112 12 -120 17 -17 55 -15 62 4 3 9 6 79 6 157 -1 109 -4 147 -15 161 -12 16
-15 56 -15 188 0 133 -3 175 -16 199 -9 19 -14 49 -12 82 l3 52 289 5 c257 4
290 7 299 22 9 13 7 22 -7 37 -18 20 -29 21 -283 21 -163 0 -272 4 -284 10
-18 10 -19 23 -19 195 0 112 -4 186 -10 190 -5 3 -10 20 -10 36 0 16 -7 46
-15 66 -8 19 -15 59 -15 87 0 35 -9 69 -28 111 -36 74 -49 86 -80 72z"/>
<path d="M4721 12028 c-8 -23 -11 -183 -11 -535 1 -333 -3 -509 -9 -522 -6
-11 -11 -37 -11 -59 0 -22 -7 -56 -15 -75 -21 -51 -21 -473 0 -532 8 -22 15
-53 15 -70 2 -51 35 -168 52 -178 8 -6 23 -7 32 -4 14 6 16 50 16 474 0 547
-5 517 100 571 62 32 65 32 203 32 l141 0 48 -50 48 -50 0 -172 c1 -136 4
-177 15 -192 8 -11 15 -36 15 -56 0 -20 7 -45 15 -56 11 -15 14 -57 15 -206 0
-156 3 -189 16 -202 19 -19 36 -20 52 -4 15 15 17 444 2 453 -5 3 -10 23 -10
44 0 20 -7 46 -15 57 -11 15 -14 54 -15 176 0 146 -2 160 -25 205 -13 27 -33
57 -45 68 -11 10 -20 24 -20 31 0 28 -42 34 -241 34 -157 0 -206 -3 -218 -14
-15 -12 -68 -30 -73 -24 -1 2 -5 201 -8 443 l-5 440 -26 3 c-22 3 -29 -2 -38
-30z"/>
<path d="M4086 11971 c-23 -25 -19 -34 24 -63 29 -20 36 -31 40 -68 3 -25 9
-51 14 -58 12 -20 10 -412 -3 -425 -6 -6 -67 -9 -155 -8 -168 2 -223 -8 -232
-44 -13 -54 19 -77 72 -51 40 19 252 23 285 6 18 -10 19 -27 19 -528 0 -390 3
-521 12 -530 18 -18 46 -14 58 7 6 13 10 196 10 524 0 457 2 506 16 518 12 10
59 16 158 19 133 5 141 6 144 26 6 40 -22 49 -156 51 -69 1 -128 5 -131 9 -3
3 -9 108 -12 232 -8 280 -18 348 -54 379 -33 29 -85 30 -109 4z"/>
<path d="M7304 11517 c-28 -25 -29 -25 -10 -46 21 -24 84 -29 104 -9 27 27 9
61 -39 73 -20 5 -33 0 -55 -18z"/>
<path d="M8038 11310 c-19 -12 -108 -191 -108 -218 0 -10 -6 -24 -12 -30 -9
-9 -13 -59 -13 -175 0 -144 2 -165 19 -187 31 -40 96 -90 118 -90 11 0 33 -11
50 -25 16 -14 36 -25 44 -25 21 0 131 -38 175 -61 25 -12 59 -19 97 -19 32 0
63 -5 68 -10 7 -7 107 -9 280 -8 l269 3 0 40 c0 39 -1 40 -35 39 -179 -7 -440
-4 -463 5 -16 6 -50 11 -77 11 -31 0 -70 9 -102 24 -72 32 -115 47 -164 55
-22 4 -56 19 -76 34 -19 15 -41 27 -49 27 -8 0 -29 18 -46 40 -33 38 -33 40
-33 143 0 57 3 107 6 110 10 10 43 109 44 129 0 10 13 32 28 50 16 18 31 41
35 51 6 15 21 17 134 17 97 -1 133 -4 147 -15 11 -8 34 -15 52 -15 17 0 56
-13 87 -30 69 -37 127 -40 158 -9 l21 21 -23 24 c-12 13 -32 24 -43 24 -11 0
-40 10 -65 22 -25 13 -71 29 -101 37 -67 17 -397 26 -422 11z"/>
<path d="M6070 11118 c-11 -18 -23 -50 -26 -70 -4 -20 -17 -47 -30 -59 -16
-15 -24 -34 -24 -56 0 -18 -13 -59 -30 -90 -18 -33 -30 -71 -30 -93 0 -21 -7
-43 -15 -50 -8 -7 -15 -29 -15 -49 -1 -20 -7 -47 -15 -61 -10 -17 -14 -58 -15
-129 l0 -104 49 -48 48 -49 245 0 245 0 38 30 c21 17 43 30 49 30 23 0 105 95
112 128 4 18 11 35 15 38 19 11 9 54 -15 65 -34 16 -63 -3 -75 -48 -11 -37
-66 -103 -87 -103 -6 0 -28 -13 -49 -30 l-38 -30 -193 0 -192 0 -32 26 -31 27
3 86 c4 76 14 121 38 171 6 12 41 15 204 18 l197 2 9 25 c5 14 21 30 35 35 19
7 25 17 25 38 0 17 12 45 30 67 45 57 42 102 -13 159 -39 41 -153 106 -186
106 -8 0 -29 11 -47 25 -27 21 -44 25 -98 25 -64 0 -67 -1 -86 -32z m127 -67
c10 -11 32 -23 48 -27 51 -12 125 -53 155 -87 30 -33 38 -57 20 -57 -6 0 -19
-17 -28 -38 -37 -81 -48 -87 -192 -90 -82 -2 -136 1 -149 8 -20 10 -20 13 -6
39 8 16 16 45 18 66 3 20 13 49 24 63 11 15 23 39 27 52 15 50 37 90 51 90 8
0 22 -9 32 -19z"/>
<path d="M7628 11139 c-14 -8 -18 -23 -18 -65 0 -30 4 -62 9 -72 30 -61 36
-99 42 -292 3 -113 9 -218 13 -235 4 -16 9 -40 12 -52 7 -36 32 -55 55 -42 19
10 20 17 14 92 -3 45 -9 172 -13 282 -6 183 -9 207 -36 285 -38 112 -44 119
-78 99z"/>
<path d="M7160 9865 c-9 -11 -10 -26 -4 -53 5 -20 9 -185 9 -367 l0 -330 -387
-3 -388 -2 0 132 c-1 90 -6 146 -15 173 -11 29 -15 87 -15 207 0 91 -3 173 -6
182 -9 23 -51 20 -64 -5 -17 -30 -9 -401 8 -421 9 -12 12 -53 10 -154 l-3
-139 -46 -3 c-60 -4 -97 -37 -75 -67 9 -13 31 -21 67 -25 l54 -5 5 -400 c3
-220 9 -406 14 -414 5 -7 8 -43 7 -80 -1 -79 14 -116 49 -116 25 0 25 0 28
115 2 67 -2 123 -8 135 -7 13 -10 149 -8 405 l3 385 385 0 385 0 5 -522 c4
-466 7 -524 21 -539 13 -13 21 -14 38 -5 l21 12 0 922 0 922 -25 38 c-28 40
-45 46 -65 22z"/>
<path d="M8347 9782 c-21 -23 -21 -42 -2 -68 8 -10 15 -41 15 -69 0 -28 7 -59
15 -69 8 -11 15 -36 15 -55 1 -20 7 -47 15 -61 10 -18 14 -62 15 -160 0 -117
3 -144 25 -205 20 -57 25 -89 25 -173 0 -57 5 -112 11 -123 6 -11 15 -44 20
-72 23 -120 47 -208 62 -223 4 -4 7 -16 7 -27 0 -10 6 -33 13 -50 34 -79 41
-107 46 -187 4 -47 12 -95 19 -107 6 -12 12 -33 12 -47 0 -56 73 -152 106
-139 27 10 28 53 2 112 -43 96 -58 153 -58 225 0 70 -10 117 -36 169 -8 16
-14 38 -14 50 0 12 -7 31 -15 41 -8 11 -15 31 -15 45 0 14 -7 35 -15 45 -8 11
-15 36 -15 55 0 20 -7 45 -15 55 -8 11 -15 39 -15 62 0 25 -5 44 -12 47 -10 3
-12 30 -10 105 2 76 -1 108 -12 131 -9 16 -16 42 -16 56 0 15 -5 36 -12 48 -7
14 -11 67 -9 149 1 95 -2 135 -13 163 -9 21 -16 52 -16 69 0 18 -5 37 -11 43
-5 5 -13 37 -16 69 -4 44 -12 66 -31 87 -30 32 -43 34 -65 9z"/>
<path d="M10920 9335 c-14 -8 -52 -15 -85 -15 -36 0 -68 -6 -79 -15 -11 -8
-32 -15 -47 -15 -17 0 -32 -8 -42 -23 -11 -17 -47 -34 -128 -61 -128 -42 -157
-56 -182 -84 -30 -33 -31 -81 -4 -168 14 -43 28 -96 32 -117 4 -24 15 -43 30
-53 18 -11 25 -25 25 -47 0 -17 11 -45 25 -63 14 -18 25 -36 25 -41 1 -4 14
-24 30 -43 17 -19 30 -43 30 -55 0 -26 10 -39 38 -54 12 -6 22 -18 22 -25 0
-7 10 -21 21 -32 12 -10 32 -36 45 -56 26 -41 61 -56 93 -38 16 8 21 20 21 53
0 24 -7 52 -15 63 -11 14 -15 49 -15 134 -1 80 -5 123 -15 140 -8 15 -14 53
-15 91 0 59 -4 72 -37 123 -36 53 -39 56 -80 56 -33 0 -45 -5 -54 -21 -9 -18
-5 -27 35 -67 49 -49 51 -54 61 -146 3 -32 10 -67 16 -77 5 -11 9 -41 7 -67
-3 -39 -6 -47 -23 -47 -13 0 -21 8 -23 22 -2 12 -20 41 -40 65 -47 55 -72 100
-72 129 0 13 -12 35 -26 50 -25 26 -38 61 -53 144 -4 23 -10 46 -15 53 -10 17
12 52 33 52 10 0 24 7 31 15 7 8 21 15 31 15 10 0 21 5 24 10 3 6 20 10 37 10
34 0 89 23 134 57 17 13 39 23 48 23 10 0 27 5 39 12 26 14 107 27 238 36 87
6 129 20 129 41 0 4 -9 17 -20 29 -19 20 -31 22 -113 22 -61 -1 -100 -6 -117
-15z"/>
<path d="M7643 9061 c-49 -27 -63 -41 -63 -63 0 -10 -13 -45 -30 -78 -23 -46
-30 -73 -30 -117 0 -34 -6 -67 -14 -78 -24 -34 -29 -102 -30 -409 l-1 -299 44
-24 c24 -13 58 -23 76 -23 17 0 40 -7 51 -15 28 -21 401 -22 430 0 10 8 37 15
59 15 22 0 49 7 59 15 11 8 29 15 41 15 12 0 43 22 73 53 l52 53 0 81 c0 73
-2 84 -21 93 -33 18 -56 -10 -61 -75 -7 -82 -74 -141 -171 -151 -29 -3 -61
-10 -72 -15 -28 -13 -326 -5 -395 10 -94 21 -90 11 -90 276 0 188 3 235 15
251 8 10 15 37 15 59 0 22 7 49 15 59 9 12 15 42 15 76 0 33 7 71 17 90 9 19
24 54 33 79 14 41 20 46 49 49 19 2 38 -1 44 -7 6 -6 20 -11 30 -11 10 0 32
-13 47 -30 21 -23 37 -30 64 -30 26 0 44 -7 61 -25 22 -22 25 -32 25 -105 0
-70 -4 -89 -30 -140 -16 -33 -40 -64 -51 -71 -12 -6 -42 -29 -66 -52 l-44 -40
-35 16 c-42 20 -74 22 -98 4 -50 -36 31 -97 129 -97 58 0 63 2 99 39 21 22 48
42 60 45 11 3 32 24 46 47 14 22 35 57 47 78 21 32 23 49 23 171 l0 136 -38
37 c-27 26 -47 37 -68 37 -21 0 -39 10 -59 30 -17 18 -39 30 -54 30 -14 0 -35
7 -45 15 -27 21 -113 18 -153 -4z"/>
<path d="M9687 9043 c-35 -35 -37 -39 -37 -104 0 -37 -4 -71 -10 -74 -5 -3
-10 -20 -10 -36 0 -16 -7 -46 -15 -66 -8 -19 -15 -64 -15 -98 0 -51 4 -69 23
-92 12 -15 29 -40 36 -55 8 -15 24 -30 35 -34 12 -3 32 -17 46 -29 29 -27 93
-55 124 -55 11 0 39 -7 61 -15 47 -17 467 -21 509 -5 28 10 34 38 14 58 -9 9
-75 12 -232 12 -173 1 -226 4 -246 15 -14 8 -38 14 -54 15 -43 0 -110 36 -160
84 -60 59 -79 91 -72 120 6 23 6 23 121 18 74 -3 124 -1 138 6 12 6 57 12 100
14 92 4 97 9 97 93 0 59 -1 62 -52 118 -28 31 -57 57 -64 57 -7 0 -29 14 -47
30 -24 20 -46 30 -68 30 -19 1 -45 7 -59 15 -14 8 -48 14 -76 15 -45 0 -55 -4
-87 -37z m169 -73 c42 -9 106 -45 134 -75 8 -9 27 -29 42 -44 15 -16 24 -31
21 -35 -3 -3 -29 -6 -57 -6 -29 0 -61 -6 -72 -14 -12 -9 -53 -16 -100 -18 -43
-2 -86 -6 -94 -8 -20 -7 -25 33 -5 50 11 9 15 31 15 79 0 75 12 95 50 86 14
-3 44 -10 66 -15z"/>
<path d="M4248 9003 c-21 -25 -48 -79 -48 -98 0 -9 -11 -38 -25 -65 -14 -27
-25 -62 -25 -77 0 -15 -12 -50 -25 -78 -20 -41 -25 -65 -25 -135 0 -102 -8
-122 -39 -91 -14 14 -21 34 -21 60 0 28 -8 49 -27 72 -21 24 -29 47 -33 88 -5
51 -7 56 -31 59 -29 3 -29 3 -73 -133 -14 -44 -26 -95 -26 -113 0 -18 -10 -52
-22 -75 -21 -39 -23 -58 -28 -275 -3 -142 -9 -233 -15 -235 -5 -1 -12 11 -13
28 -2 16 -10 38 -18 49 -8 11 -14 29 -14 39 0 10 -11 33 -24 50 -13 18 -27 46
-31 64 -13 61 -54 53 -84 -17 -20 -46 -21 -67 -21 -330 0 -227 3 -288 15 -317
17 -40 20 -133 5 -133 -5 0 -10 10 -10 23 0 24 -54 87 -75 87 -6 0 -19 -8 -28
-18 -23 -26 -25 -278 -2 -308 11 -14 14 -49 15 -136 0 -78 5 -126 14 -145 24
-50 38 -97 46 -153 3 -30 16 -80 28 -110 11 -30 36 -98 55 -150 38 -108 59
-151 81 -169 9 -8 16 -23 16 -35 0 -13 13 -40 30 -62 16 -21 30 -49 30 -61 0
-12 10 -34 23 -50 41 -52 65 -89 95 -149 17 -33 37 -66 46 -73 9 -8 16 -19 16
-25 0 -13 86 -98 114 -113 10 -6 69 -60 130 -121 75 -74 121 -113 141 -117 17
-3 38 -10 47 -16 64 -34 109 36 52 80 -15 12 -39 21 -53 21 -20 0 -54 27 -146
120 -66 66 -124 120 -130 120 -15 0 -65 49 -65 64 0 7 -9 21 -21 32 -12 10
-33 44 -48 74 -26 54 -40 76 -93 147 -16 20 -28 45 -28 56 0 11 -10 34 -23 51
-13 17 -34 52 -46 78 -13 27 -27 50 -32 54 -5 3 -9 13 -9 23 0 10 -7 24 -15
31 -8 7 -15 24 -15 39 0 15 -4 31 -10 37 -10 10 -55 126 -70 179 -5 17 -13 44
-18 60 -5 17 -7 36 -5 43 4 11 -9 59 -43 155 -22 61 -16 227 8 227 6 0 12 -9
15 -20 8 -29 79 -63 104 -49 16 8 19 21 19 82 -1 47 -6 79 -15 91 -8 11 -15
37 -15 57 0 21 -4 41 -10 44 -5 3 -10 38 -10 76 0 39 -7 85 -15 106 -11 27
-15 78 -15 214 0 99 3 179 8 179 4 0 25 -39 47 -86 22 -47 50 -95 63 -106 12
-12 22 -33 22 -48 0 -48 49 -69 70 -31 6 13 10 140 10 346 l0 326 25 49 c19
37 25 65 25 110 0 38 4 59 10 55 6 -3 10 -23 10 -44 0 -22 6 -44 15 -51 8 -7
15 -27 15 -46 0 -35 24 -96 49 -126 16 -21 64 -24 78 -5 6 6 17 32 26 57 8 25
22 64 31 88 10 26 16 70 15 112 -1 54 4 79 25 123 14 31 26 67 26 80 0 34 29
99 40 92 6 -3 10 -12 10 -19 0 -7 25 -63 55 -124 30 -61 55 -117 55 -124 0 -7
12 -35 26 -61 14 -27 28 -67 30 -90 3 -23 15 -52 26 -64 12 -13 22 -41 25 -68
3 -25 10 -48 14 -51 5 -3 9 -33 9 -67 0 -35 7 -74 15 -91 8 -15 15 -38 15 -51
0 -12 7 -28 15 -35 10 -8 15 -31 15 -69 1 -33 7 -64 15 -75 8 -11 15 -29 15
-41 0 -12 7 -30 15 -41 8 -10 15 -29 15 -40 0 -12 11 -42 25 -65 14 -25 25
-60 25 -81 0 -20 7 -44 16 -53 22 -21 114 -204 114 -225 0 -9 13 -34 30 -56
16 -21 30 -48 30 -60 0 -11 15 -38 34 -61 19 -22 47 -62 63 -89 16 -27 37 -64
48 -83 11 -19 37 -53 58 -76 20 -23 37 -46 37 -51 0 -8 4 -13 164 -177 59 -59
106 -116 106 -126 0 -20 -30 -43 -70 -56 -14 -4 -39 -18 -57 -31 -17 -13 -39
-24 -48 -24 -25 0 -97 -40 -118 -66 -10 -13 -26 -24 -35 -24 -10 0 -60 -43
-112 -95 -52 -53 -110 -110 -127 -127 -18 -17 -33 -36 -33 -43 0 -6 -18 -29
-41 -50 -22 -22 -49 -56 -59 -76 -10 -19 -26 -41 -34 -48 -9 -8 -16 -22 -16
-32 0 -10 -13 -31 -30 -46 -19 -17 -30 -36 -30 -53 0 -15 -10 -36 -24 -49 -13
-13 -26 -31 -29 -41 -6 -24 19 -60 42 -60 22 0 91 70 91 93 0 9 11 27 25 39
14 12 25 29 25 37 0 29 81 151 134 200 20 19 36 39 36 44 0 20 68 87 215 213
17 14 47 41 68 60 21 19 46 34 55 34 9 0 36 10 59 23 23 12 63 33 90 46 26 13
60 30 75 37 14 8 42 14 61 14 23 0 37 6 41 16 8 22 9 19 -26 59 -17 20 -39 51
-48 68 -9 18 -35 44 -58 60 -41 28 -232 238 -232 256 0 5 -14 21 -30 35 -17
13 -46 55 -66 93 -19 37 -46 79 -59 93 -29 31 -145 257 -145 284 0 10 -13 34
-30 53 -16 18 -30 43 -30 54 0 11 -11 35 -25 53 -14 18 -25 46 -25 62 0 16
-13 56 -30 89 -16 33 -30 65 -30 72 0 6 -11 44 -25 85 -14 40 -25 90 -25 110
0 20 -11 58 -25 84 -20 37 -25 62 -25 118 -1 47 -6 78 -15 90 -8 11 -15 37
-15 59 0 29 -8 48 -30 74 -21 24 -30 44 -30 69 0 24 -9 46 -25 66 -14 16 -25
38 -25 49 0 11 -11 42 -25 69 -14 27 -25 56 -25 64 0 8 -11 36 -25 62 -18 33
-25 63 -25 100 0 82 -43 164 -85 164 -12 0 -29 -8 -37 -17z"/>
<path d="M8760 8964 c-36 -13 -83 -24 -106 -24 -30 0 -47 -6 -63 -24 -43 -45
-8 -90 52 -68 18 7 48 12 65 12 17 0 49 6 69 14 91 32 116 35 301 37 l193 1
39 -27 c65 -45 72 -63 67 -168 -5 -109 -22 -200 -38 -206 -6 -2 -19 -20 -28
-41 -21 -48 -104 -120 -138 -120 -14 0 -47 -8 -74 -17 -64 -23 -82 -13 -90 53
-7 52 -25 126 -39 159 -5 11 -11 37 -14 58 -3 21 -16 51 -30 67 -13 17 -27 39
-31 49 -8 27 -35 34 -56 15 -25 -23 -24 -50 6 -103 14 -24 25 -59 25 -80 0
-20 5 -42 12 -49 21 -21 41 -86 45 -151 5 -60 3 -65 -26 -95 -26 -27 -29 -35
-19 -49 7 -10 27 -21 43 -25 28 -8 30 -13 36 -63 3 -30 15 -82 27 -116 12 -34
22 -78 22 -98 0 -20 11 -58 25 -85 14 -27 25 -66 25 -87 0 -33 14 -85 40 -148
5 -11 11 -36 13 -55 5 -38 21 -89 43 -133 8 -16 14 -45 14 -65 0 -20 7 -46 15
-56 8 -11 15 -28 15 -37 0 -10 14 -44 30 -76 17 -31 30 -63 30 -70 0 -21 33
-82 47 -87 51 -20 63 44 27 139 -61 161 -84 230 -84 252 0 13 -4 31 -9 41 -18
35 -34 89 -40 135 -4 26 -13 53 -19 59 -7 7 -12 24 -12 38 0 14 -5 31 -12 38
-6 6 -15 33 -19 59 -6 46 -22 100 -40 135 -5 10 -9 29 -9 43 0 14 -7 42 -15
62 -8 19 -15 46 -15 60 0 13 -4 32 -9 41 -5 10 -12 40 -15 69 -6 58 -1 63 67
63 23 0 51 7 61 15 11 8 31 15 45 15 14 1 44 14 66 30 22 16 55 37 73 47 21
11 32 24 32 38 0 12 14 39 30 60 21 26 30 49 30 74 0 21 7 46 15 57 11 14 14
49 15 139 0 104 -3 126 -22 167 -14 30 -32 52 -49 59 -15 6 -35 19 -45 30 -16
18 -33 19 -273 18 -243 -1 -259 -2 -321 -25z"/>
<path d="M5455 6143 c-23 -6 -65 -42 -65 -55 0 -5 -13 -26 -29 -46 -17 -21
-31 -54 -34 -77 -11 -80 -27 -149 -37 -159 -5 -5 -10 -24 -10 -42 0 -17 -6
-47 -14 -65 -8 -19 -14 -50 -14 -70 0 -20 -5 -46 -11 -57 -6 -11 -11 -63 -11
-114 0 -73 -5 -108 -25 -163 -18 -52 -25 -91 -25 -151 0 -55 -5 -86 -15 -100
-9 -12 -14 -43 -15 -85 0 -41 -5 -72 -15 -85 -11 -15 -14 -57 -15 -200 l0
-181 30 -38 c17 -21 30 -41 30 -46 0 -12 91 -70 133 -85 21 -8 50 -23 64 -34
14 -11 34 -20 44 -20 10 0 39 -11 65 -25 26 -14 61 -25 79 -25 17 0 40 -7 51
-15 10 -8 35 -15 55 -15 20 0 59 -13 90 -30 40 -22 67 -30 105 -30 31 0 71 -9
100 -22 27 -12 74 -25 104 -29 30 -4 90 -16 134 -28 52 -14 109 -21 167 -21
75 0 95 -4 135 -25 44 -24 56 -25 208 -25 121 -1 167 -4 186 -15 16 -9 56 -14
116 -15 63 0 96 -4 110 -15 16 -12 74 -14 342 -15 200 0 322 -4 322 -10 0 -5
14 -25 30 -43 17 -19 30 -39 30 -45 0 -17 29 -34 57 -34 30 0 73 42 73 72 0
10 15 28 34 39 28 17 50 21 128 21 107 0 112 -3 132 -72 17 -56 54 -78 92 -54
19 13 24 25 24 61 0 34 5 47 19 55 11 6 87 10 176 10 l157 0 80 -80 c82 -81
107 -93 141 -67 12 8 17 31 19 77 l3 65 41 3 c27 2 45 -2 54 -13 17 -21 37
-19 92 7 55 26 49 -16 52 378 1 271 0 282 -40 363 -8 16 -14 49 -14 74 0 34
-7 54 -28 82 -15 20 -36 55 -47 78 -10 24 -42 65 -71 93 l-53 50 -268 0 c-213
1 -273 4 -293 15 -20 11 -75 14 -255 15 -224 0 -231 1 -280 25 -27 13 -68 25
-90 25 -22 0 -64 11 -93 25 -30 14 -64 25 -75 25 -35 1 -126 35 -155 59 -14
11 -35 21 -47 22 -24 0 -130 58 -215 117 -34 23 -68 42 -75 42 -6 0 -20 9 -31
21 -10 12 -45 34 -77 50 -78 40 -304 265 -347 346 -62 116 -81 143 -107 149
-37 10 -98 -15 -145 -58 -23 -21 -46 -38 -52 -38 -6 0 -34 -20 -63 -45 l-51
-45 -222 0 -221 0 -61 30 c-33 17 -64 30 -68 30 -5 0 -36 28 -69 63 -51 51
-61 68 -61 97 0 19 -9 60 -20 90 -19 56 -30 64 -75 53z m16 -160 c0 -5 1 -26
3 -49 2 -36 11 -49 74 -112 58 -58 77 -72 102 -72 17 0 48 -11 68 -25 l37 -25
273 0 274 0 61 55 c43 40 68 55 89 55 21 0 32 7 40 25 6 14 17 25 24 25 15 0
74 -66 74 -83 0 -15 71 -121 103 -153 41 -42 48 -49 65 -66 9 -9 22 -22 28
-29 58 -58 134 -116 177 -134 19 -8 48 -25 63 -38 16 -13 41 -27 56 -31 15 -3
35 -17 44 -31 10 -15 26 -25 40 -25 13 0 28 -9 34 -19 11 -21 139 -91 167 -91
9 0 31 -11 49 -25 18 -14 41 -25 51 -25 10 -1 29 -7 43 -15 14 -8 39 -14 57
-15 18 0 53 -11 79 -25 30 -16 63 -25 91 -25 30 0 61 -9 98 -30 l54 -30 238 0
c193 -1 242 -3 257 -15 16 -12 67 -15 286 -15 l266 0 31 -32 c17 -18 43 -58
58 -88 15 -30 36 -66 46 -79 12 -15 19 -40 19 -67 0 -25 4 -52 9 -62 32 -64
36 -94 39 -307 2 -188 0 -225 -14 -257 -9 -20 -26 -39 -38 -42 -11 -3 -436 -6
-944 -6 -798 0 -928 2 -959 15 -23 10 -69 15 -130 15 -56 0 -103 5 -116 12
-14 8 -78 14 -179 16 -142 2 -162 5 -210 27 -45 21 -68 25 -150 25 -54 0 -100
4 -103 10 -3 6 -22 10 -41 10 -20 0 -45 5 -57 12 -12 7 -47 15 -77 19 -56 7
-103 20 -153 45 -16 8 -49 14 -73 14 -27 0 -63 9 -92 24 -26 13 -68 26 -94 30
-26 4 -50 11 -53 17 -4 5 -20 9 -37 9 -33 0 -145 44 -218 85 -14 7 -39 19 -57
25 -45 17 -133 107 -133 137 0 13 9 41 20 63 26 51 25 62 -5 88 -29 25 -32 65
-10 119 8 19 15 60 15 90 0 30 7 68 16 84 10 21 15 53 13 102 -2 66 6 111 34
177 6 14 14 75 18 135 10 144 22 225 37 252 7 12 12 37 12 55 0 18 7 42 15 52
8 11 15 36 15 56 0 20 7 45 15 56 8 10 15 37 15 60 0 22 3 44 7 47 9 9 43 9
44 0z"/>
</g>
</svg>
